<?xml version="1.0" encoding="utf-8"?>
<!-- Generator: Adobe Illustrator 25.4.1, SVG Export Plug-In . SVG Version: 6.00 Build 0)  -->
<svg version="1.1" id="Layer_1" xmlns="http://www.w3.org/2000/svg" xmlns:xlink="http://www.w3.org/1999/xlink" x="0px" y="0px"
	 viewBox="0 0 3160 1612" style="enable-background:new 0 0 3160 1612;" xml:space="preserve">
<g>
	<path d="M1589.73,289.56c69.31,0,138.62-0.01,207.93,0c62.97,0.01,125.95-0.06,188.92,0.08c21.99,0.05,43.98,0.52,65.97,1.04
		c13.35,0.31,19.09,6.83,19.25,19.97c0.87,72.61,1.81,145.21,2.9,217.82c1.67,111.62,3.45,223.23,5.23,334.85
		c1.27,79.29,2.66,158.57,3.91,237.85c0.7,43.91,1.21,87.83,1.87,131.74c0.6,40.27,1.67,80.53,1.76,120.79
		c0.03,15.47-5.57,19.51-21.16,19.64c-139.96,1.16-279.91,2.41-419.87,3.59c-19.99,0.17-39.99-0.04-59.98,0.1
		c-134.48,0.97-268.97,1.98-403.45,3.04c-7.65,0.06-15.33,0.37-22.93,1.2c-2.52,0.27-5.99,1.92-7.02,3.96
		c-4.37,8.64-12.97,10.48-19.45,7.67c-5.74-2.49-10.18-10.04-13.07-16.33c-2.21-4.8-1.28-11.13-1.42-16.79
		c-3.62-150.57-7.04-301.15-10.84-451.72c-2.33-92.26-5.46-184.5-7.78-276.77c-2.4-95.26-4.22-190.53-6.38-285.79
		c-0.21-9.32-1.25-18.62-1.53-27.94c-0.66-22.47,9.4-32.89,32.37-33.22c12.32-0.18,24.65,0.54,36.98,0.56
		c70.63,0.11,141.27,0.15,211.9,0.18c71.95,0.03,125.16,2.99,197.12,2.99C1570.97,289.56,1589.72,288.07,1589.73,289.56z
		 M1386.15,1064.31c-0.76-0.77-1.52-1.54-2.28-2.31c-4.48-6.11-9.04-12.16-13.41-18.36c-4.11-5.82-11.17-12.23-3.49-19.02
		c7.42-6.56,12.33,1.84,17.66,5.77c6.35,4.68,12.78,9.27,19.17,13.9c1.43-3.37,1.35-4.73,0.75-5.79c-1.64-2.89-3.3-5.8-5.29-8.45
		c-26.01-34.68-49.69-70.77-69.6-109.41c-9.42-18.27-20.65-35.79-32.64-52.51c-15.69-21.88-34.08-41.86-49.3-64.04
		c-34.47-50.23-67.69-101.31-101.44-152.03c-1.89-2.85-3.93-5.6-5.91-8.39c-0.82,0.26-1.64,0.52-2.47,0.78
		c0,4.16-0.09,8.33,0.01,12.49c2.42,93.56,5.05,187.11,7.09,280.68c0.28,13.01,2.36,24.01,12.91,32.75
		c4.79,3.97,8.43,9.42,12.18,14.51c41.24,56.08,91.39,104.01,140,153.34c2.63,2.67,6.07,4.55,9.14,6.79
		c-0.01-4.03-1.47-6.17-2.86-8.35c-6.63-10.37-13.84-20.44-19.54-31.3c-2.08-3.96-4.23-11.31-0.67-14.81
		c3.49-3.43,10.24-0.77,14.54,0.92c5.1,2.01,9.18,6.49,13.9,9.6c5.76,3.79,11.73,7.26,17.6,10.86l-0.14,0.14
		c-4.94-7.42-10.01-14.76-14.78-22.29c-3.16-4.99-7.44-10.22-1.11-15.91c5.68-5.1,10.45-1.51,15.12,1.91
		c2.68,1.97,5.21,4.15,7.92,6.08c6.55,4.66,13.17,9.22,19.76,13.83c0.85-0.77,1.71-1.54,2.56-2.32
		c-5.89-10.21-11.72-20.46-17.7-30.61c-3.25-5.51-7.82-11.24-0.92-16.72c6.59-5.24,11.68-0.15,16.61,3.95
		c4.79,4,9.65,7.91,14.49,11.86c0.78,0.76,1.56,1.52,2.34,2.28C1386.34,1064.16,1386.16,1064.32,1386.15,1064.31z M1150.04,985.59
		c-0.9,0.29-1.81,0.58-2.71,0.87c0,3.59-0.06,7.19,0.01,10.78c0.68,34.98,1.26,69.96,2.12,104.94c1.91,77.23,3.97,154.47,5.97,231.7
		c0.31,12.06,0.66,12.65,12.42,12.53c59.28-0.6,118.55-1.42,177.83-2.03c64.29-0.66,128.57-1.21,192.86-1.7
		c12.14-0.09,12.04,0.13,12.06-11.88c0.09-43.38,1.99-86.6,11.65-129.11c0.81-3.55,1.65-7.23,3.34-10.39
		c1.09-2.04,3.84-4.55,5.71-4.44c1.96,0.11,4.79,2.79,5.41,4.89c1.39,4.71,2.28,9.76,2.24,14.66c-0.25,32.28-0.85,64.56-1.23,96.85
		c-0.12,10.32,0.19,20.65,0.05,30.98c-0.1,6.94,2.82,9.14,9.79,8.68c16.25-1.08,32.55-1.79,48.83-1.93
		c36.94-0.33,73.88-0.22,110.81-0.31c34.3-0.09,68.6-0.05,102.9-0.36c60.62-0.55,121.25-1.32,181.87-1.99
		c6.95-0.08,13.9-0.08,20.84-0.11c-0.05-7.14-0.09-14.28-0.14-21.42c-0.01-1-0.04-2-0.06-3c-2.61-149.28-5.3-298.56-7.8-447.84
		c-1.95-115.96-3.68-231.92-5.48-347.88c-0.94-60.31-1.83-120.62-2.73-180.93c-0.19-12.58-0.4-12.94-12.7-13.04
		c-74.27-0.58-148.53-1.14-222.8-1.64c-53.24-0.36-106.47-0.64-159.71-0.9c-78.29-0.37-156.59-0.7-234.88-1.04
		c-89.61-0.39-179.21-0.66-268.82-1.38c-7.58-0.06-8.68,2.39-8.5,8.94c1.85,64.61,3.47,129.23,5.12,193.85
		c0.53,20.65,0.47,41.34,1.68,61.95c0.45,7.66,2.15,16.17,6.11,22.54c12.1,19.5,25.62,38.12,38.51,57.14
		c29.9,44.11,59.41,88.51,89.77,132.3c19.72,28.45,42.32,55.01,60.68,84.27c30.24,48.2,58.19,97.85,86.82,147.06
		c3.27,5.63,5.55,12.21,6.67,18.63c1.23,7.03-0.04,14.82-7.71,17.72c-6.84,2.58-7.68,6.68-7.59,12.96
		c0.16,10.09-3.7,14.93-12.09,14.6c-6.93-0.28-7.5,2.06-6.74,8.07c2.32,18.32-2.57,22.45-20.39,18.19c-0.47-0.11-1.1,0.43-2.02,0.83
		c0,1.45,0.15,3.07-0.03,4.66c-0.54,4.91,0.56,11.58-2.2,14.3c-4.98,4.92-11.54,2.29-17.37-1.38c-3.68-2.32-8.18-3.34-10.66-4.3
		c1.97,10.81,5.1,21.27,5.47,31.82c0.46,12.98-8.79,17.62-19.96,11.22c-2.59-1.48-5.32-2.93-7.44-4.97
		c-18.98-18.16-37.25-37.1-56.84-54.57c-40.39-36.02-71.86-79.41-103.63-122.63C1153.67,990.03,1151.82,987.84,1150.04,985.59z"/>
	<path d="M1072.13,316.3c-1.1,6.01-3.24,12.03-3.14,18.02c0.98,63.96,2.42,127.92,3.53,191.89c1.94,112.27,3.78,224.54,5.56,336.82
		c1.34,84.63,2.54,169.26,3.79,253.9c0.59,40.31,1.01,80.62,1.77,120.93c0.59,31.29,1.68,62.56,2.36,93.85
		c0.23,10.62,0.52,21.3-0.4,31.85c-0.68,7.77-5.32,13.67-13.66,15.05c-4.24,0.7-8.63,0.59-12.96,0.62
		c-122.97,0.86-245.94,1.53-368.91,2.57c-165.95,1.41-331.9,3.09-497.84,4.69c-8.33,0.08-16.65,0.53-24.98,0.82
		c-7.15,0.25-13.26,0.26-19.34,7.01c-3.5,3.89-14.32,2.88-21.21,1.31c-3.55-0.81-6.56-7.34-8.28-11.87
		c-1.47-3.86-0.85-8.55-0.96-12.88c-2.34-96.27-4.56-192.54-6.99-288.81c-2.8-110.93-5.71-221.85-8.68-332.78
		c-2.91-108.88-5.99-217.76-8.9-326.65c-0.5-18.65-0.32-37.32-0.75-55.97c-0.35-14.96-1.34-29.91-1.7-44.87
		c-0.39-16.59,13.74-31.33,30.25-31.31c50.32,0.05,100.64,0.23,150.96,0.57c84.31,0.57,168.62,1.2,252.92,2.02
		c50.29,0.49,100.58,1.76,150.87,2.03c55.32,0.29,110.63-0.26,165.95-0.26c48.26,0.01,96.53,0.16,144.79,0.49
		c21.31,0.15,42.61,0.85,63.91,1.38c13.85,0.34,14.38,0.92,18.3,14.59c0.55,1.93,2.44,3.48,3.71,5.21
		C1072.11,316.5,1072.13,316.3,1072.13,316.3z M1039.98,677.39c-0.16,0-0.32,0.01-0.48,0.01c-1.69-111.96-3.47-223.91-4.9-335.87
		c-0.11-8.54-2.33-11.45-11.27-11.5c-94.3-0.47-188.61-1.29-282.91-2.21c-15.03-0.15-30.04-1.78-45.06-1.8
		c-13.62-0.02-27.25,1.82-40.87,1.81c-59.64-0.06-119.28-0.65-178.92-0.77c-61.3-0.12-122.61,0.32-183.91,0.05
		c-51.64-0.23-103.29-0.98-154.92-1.87c-7.54-0.13-10.04,2.21-9.61,9.6c0.97,16.63,1.58,33.28,2.04,49.93
		c3.44,125.24,6.85,250.48,10.17,375.72c2.03,76.61,3.99,153.22,5.83,229.83c2.8,116.6,5.48,233.2,8.2,349.8
		c0.29,12.57,0.24,12.66,12.93,12.56c46.97-0.36,93.93-0.71,140.9-1.19c104.62-1.09,209.24-2.31,313.86-3.29
		c7.14-0.07,9.53-2.48,8.58-9.5c-7.88-58.11-5.34-116.44-2.54-174.67c1.08-22.48,5.48-44.85,9.16-67.14
		c0.65-3.93,3.43-11.4,7.9-10.81c4.61,0.61,4.83,8.55,5.03,12.93c0.64,14.63,0.24,29.31,0.27,43.98
		c0.1,52.26,0.07,104.53,0.45,156.79c0.1,12.97,1.56,25.92,2.43,38.88c0.41,6.1,2.75,9.77,9.86,9.57
		c16.2-0.46,32.41-0.37,48.61-0.51c30.98-0.28,61.96-0.55,92.94-0.86c77.62-0.77,155.24-1.61,232.86-2.3
		c14.62-0.13,14.62,0.13,14.15-13.72c-0.04-1.33-0.05-2.67-0.07-4c-2-121.52-4-243.03-6-364.55
		C1043.12,867.32,1041.54,772.36,1039.98,677.39z"/>
	<path d="M2138.19,1368.03c-2.69-6.9-7.5-13.74-7.73-20.72c-1.79-54.96-2.58-109.94-3.92-164.91
		c-2.76-113.61-5.52-227.22-8.55-340.82c-1.92-71.95-4.64-143.88-6.47-215.83c-1.36-53.6-1.62-107.23-2.85-160.83
		c-1.1-48.3-2.85-96.59-4.32-144.88c-0.72-23.5,8.63-33.55,32.55-33.62c41.98-0.12,83.97,0.12,125.95,0.41
		c76.99,0.53,153.97,1.17,230.96,1.84c138.63,1.21,277.25,2.53,415.88,3.69c40.99,0.34,81.98,0.05,122.97,0.57
		c18.92,0.24,22.94,6.4,22.81,25.48c-0.24,36.65,0.5,73.31,1.16,109.96c1.16,64.65,2.66,129.29,3.83,193.93
		c1.34,74.31,2.48,148.63,3.7,222.94c1.29,77.98,2.64,155.95,3.83,233.93c0.68,44.96,0.93,89.92,1.64,134.87
		c0.55,35.27,1.54,70.54,2.24,105.8c0.1,4.99-0.01,10.02-0.52,14.98c-0.97,9.42-6.17,14.44-15.64,14.8c-9.99,0.37-20,0.21-30,0.28
		c-109.32,0.73-218.64,1.26-327.96,2.24c-172.98,1.56-345.95,3.44-518.92,5.13c-7.43,0.07-13.43,0.58-18.65,8.02
		c-5.09,7.25-14.28,5.12-22.14,2.64C2138.03,1367.91,2138.19,1368.03,2138.19,1368.03z M3029.79,822.57c-0.13,0-0.26,0-0.39,0
		c-0.98-86.98-1.88-173.95-2.97-260.93c-0.93-74.31-2.09-148.61-3.11-222.92c-0.16-11.36-2.17-13.87-14.25-14.05
		c-64.28-0.93-128.55-1.87-192.83-2.34c-48.92-0.35-97.85,0.07-146.77,0.02c-61.96-0.06-123.91-0.23-185.87-0.38
		c-62.99-0.16-125.98-0.21-188.97-0.59c-48.28-0.29-96.57-0.87-144.85-1.71c-7.85-0.14-10.83,2.12-10.26,10.09
		c0.92,12.95,1.36,25.94,1.66,38.91c1.7,72.63,3.05,145.27,4.99,217.89c3.66,137.24,7.8,274.47,11.43,411.72
		c2.75,103.93,5.01,207.88,7.53,311.82c0.34,13.88,0.45,14.05,14.77,13.84c68.64-0.98,137.27-2.15,205.91-2.98
		c7.02-0.08,9.99-2.4,11.22-9.38c2.53-14.41,5.71-28.73,9.26-42.93c0.75-3.02,3.01-7.78,6.46-8c3.52-0.22,5.66,4.45,7.62,7.28
		c1.39,2.01,1.71,5.04,1.77,7.64c0.3,11.65,0.38,23.3,0.48,34.95c0.09,11.58,0.5,12,11.65,11.61c16.65-0.58,33.29-1.53,49.94-1.63
		c67.29-0.42,134.59-0.28,201.88-0.91c69.97-0.65,139.93-2.08,209.9-2.88c15.25-0.18,30.52,1.36,45.77,1.2
		c28.63-0.29,57.26-1.7,85.89-1.66c8.82,0.01,11.34-1.88,11.06-10.93c-1.63-52.29-2.88-104.59-3.78-156.9
		C3033.07,1039.83,3031.49,931.2,3029.79,822.57z"/>
	<path d="M1072.11,316.5c0,0,0.01-0.21,0.01-0.21S1072.11,316.5,1072.11,316.5z"/>
	<path d="M1571.71,1079.41c-1.65-9.24-2.4-18.76-5.19-27.64c-3.67-11.71-0.25-18.39,11.96-19.16c13.96-0.89,27.94-1.37,41.9-2.18
		c8.4-0.49,15.94,1.43,18.3,10.27c2.11,7.9-4.92,11.23-10.03,15.54c-6.57,5.55-12.63,11.76-18.41,18.14
		c-1.76,1.95-1.84,5.41-2.69,8.18c2.71,0.68,5.54,2.26,8.1,1.9c11.19-1.56,22.5-2.91,33.4-5.76c19.31-5.05,39.04-9.5,57.33-17.2
		c20.07-8.46,38.67-20.4,58-30.65c6.71-3.56,14.01-6.11,20.46-10.07c7.01-4.31,13.69-9.32,19.89-14.74
		c12.03-10.52,23.23-22,35.5-32.22c10.7-8.92,15.62-8.77,22.77-2.03c6.02,5.68,5.74,13.72-0.89,23.55c-1.28,1.9-2.74,3.67-4.1,5.49
		c11.04,8.6,12.23,13.7,5.51,25.52c-3.28,5.77-6.67,11.67-11.03,16.62c-28.82,32.73-60.55,62-100.89,80.15
		c-7.78,3.5-16.58,4.79-24.98,6.83c-5.03,1.22-6.66,2.33-6.44,9.05c0.44,13.33,0.05,27.75-4.58,39.98
		c-9.72,25.61-26.42,25.55-45.85,17.48c-4.96-2.06-10.28-9.61-10.64-14.97c-0.66-9.59,2.06-19.48,3.91-29.14
		c0.79-4.11,4.43-8.87-1.98-10.56c-2.65-0.7-7.33,1.42-9.29,3.76c-19.85,23.73-45.07,35.2-75.94,35.56
		c-24.82,0.3-49.12-1.62-72.94-9.34c-21.89-7.09-39.04-20.09-51.12-39.29c-4.09-6.51-6.27-14.63-7.7-22.32
		c-6.37-34.24,1.33-64.26,28.69-87.43c6.01-5.09,7.74-10.62,7.38-18.26c-1.18-25.32,9.22-47.35,20.81-68.93
		c6.3-11.74,12.68-23.43,18.79-35.26c1.79-3.47,2.79-7.36,3.3-8.74c-8.94-5.5-16.66-10.61-24.77-14.98
		c-2.01-1.09-5.71-0.6-7.94,0.52c-20.18,10.15-41.33,8.81-62.01,3.67c-8.47-2.1-17.35-7.94-23.06-14.62
		c-11.09-12.99-17.07-28.46-18.71-46.26c-2.21-23.99,6.93-41.83,23.58-57.63c24.4-23.17,48.77-46.41,72.32-70.42
		c9.95-10.14,18.42-21.91,26.48-33.67c15.39-22.46,36.71-29.88,61.99-18.65c11.08,4.93,21.01,12.69,30.87,19.98
		c3.02,2.23,5.25,7.04,5.67,10.91c0.55,5.05-2.33,8.44-8.21,5.45c-5.05-2.56-9.76-6.33-15.1-7.67c-12.43-3.11-25.09-5.41-37.78-7.24
		c-2.43-0.35-6.81,2.29-7.9,4.66c-19.92,43.27-57.77,70.86-89.83,103.51c-8.86,9.02-17.7,18.15-25.65,27.95
		c-10.04,12.37-3.99,44.58,9.6,53.03c2.61,1.62,6.25,1.95,9.46,2.18c17.93,1.28,34.82-3.92,51.73-8.74
		c10.02-2.86,18.13-0.42,25.39,7.04c2.3,2.36,6.32,4.29,9.52,4.25c5.57-0.08,9.48-2.89,10.99-9.4c4.13-17.83,8.86-35.53,13.87-53.14
		c1-3.51,2.63-9.76,6.49-9.54c4.01,0.23,5.86,7.33,5.43,10.56c-3.39,25.65-6.92,51.33-11.74,76.75
		c-6.4,33.71-22.11,63.97-36.56,94.76c-17.52,37.34-10.23,72.5,20.14,98.5c9.04,7.74,20.77,12.33,31.26,18.36
		C1569.58,1080.9,1570.65,1080.15,1571.71,1079.41z M1643.81,1113.47c-20.85,0-38.87,1.45-56.58-0.3
		c-37.3-3.68-69.76-17.44-90.8-50.73c-4.55-7.19-8.41-14.81-12.7-22.44c-22.19,26.83-22.41,62.89-0.37,86.34
		c4.65,4.95,10.84,8.86,16.99,11.91c23.15,11.5,48.02,15.32,73.67,15.31C1603.83,1153.53,1623.94,1136.78,1643.81,1113.47z
		 M1807.04,1045.81c-10.93,5.45-22.77,9.6-32.6,16.59c-26.83,19.09-56.87,30.1-88.21,38.51c-2.88,0.77-5.95,1.46-8.39,3.02
		c-1.58,1.01-2.84,3.53-2.92,5.42c-0.04,0.98,2.69,2.63,4.38,3c2.21,0.47,4.63,0.1,6.94-0.13
		C1735.69,1107.26,1775.26,1083.76,1807.04,1045.81z M1707.04,1152.65c-1.84-5.46-2.16-11.1-5.11-13.48
		c-1.87-1.51-7.81,1.45-11.66,3.05c-11.36,4.74-12.17,15.74-14.45,25.67c-1.34,5.82-1.1,11.28,5.8,14.05
		c6.86,2.75,13.15,1.75,16.37-4.78C1701.89,1169.3,1704.17,1160.65,1707.04,1152.65z"/>
	<path d="M1958.72,1002.32c30.05,15.51,49.93,39.04,67.83,64.6c1.52,2.17,4.02,4.37,4.13,6.65c0.15,3.2-0.55,7.88-2.67,9.33
		c-1.97,1.35-6.76,0.12-9.41-1.47c-2.66-1.6-4.02-5.21-6.27-7.66c-14.61-15.9-29.16-31.86-44.08-47.47
		c-3.37-3.53-8.04-5.84-12.23-8.54c-5.26-3.38-9.76-2.98-15.48,0.63c-21.16,13.38-47.59,12.35-59.41-17.97
		c-10.56-27.1-16.96-54.88-19.45-84.2c-3.14-37.05-11.25-73.65-15.44-110.65c-1.97-17.34-1-35.28,0.92-52.7
		c1.37-12.38,9.32-22.08,22.14-25.88c2.38-0.7,6.95-1.25,8.13,1.26c1.04,2.21-1.92,4.86-3.7,6.25
		c-8.09,6.35-11.63,14.83-10.62,24.61c2.56,24.75,5.42,49.48,8.82,74.13c4.81,34.9,11.02,69.63,15.05,104.62
		c2.34,20.35,10.74,38.31,17.59,56.96c2.97,8.09,9.02,8.79,16.26,5.43c19.03-8.82,33.54-23.3,45.22-39.9
		c12.6-17.91,22.63-37.62,34.02-56.4c3.16-5.21,7.13-9.92,11.87-14.14C2008.48,933.49,1993.92,971.8,1958.72,1002.32z"/>
	<path d="M1769.38,635.56c-46.19,0.36-90.05,9.52-130.55,32.45c-2.89,1.64-5.84,3.84-8.96,4.26c-3.31,0.44-9.45-0.27-9.81-1.65
		c-0.9-3.48-0.64-9.19,1.64-11.23c9.16-8.18,19.04-15.64,29.07-22.77c19.39-13.78,41.13-21.72,64.71-24.62
		c21.14-2.6,42.22-6.5,63.43-7.42c33.07-1.43,62.55,10.65,89.88,28.47c10.27,6.69,15.09,16.87,16.58,28.34
		c0.56,4.29-1.09,10.72-4.13,13.08c-2.94,2.29-9.2,1.49-13.58,0.38c-3.61-0.92-7.78-3.56-9.65-6.68
		c-6.75-11.25-17.37-15.74-29.07-19.51c-8.82-2.84-16.85-8.61-25.78-10.48C1792.2,635.91,1780.67,636.32,1769.38,635.56z"/>
	<path d="M1511.23,480.01c-0.45,8.15-0.46,16.36-1.57,24.42c-0.44,3.21-1.14,8.28-5.12,9.09c-2.99-1.19-6.05-5.47-6.25-8.4
		c-1.28-18.57-2.07-37.2-2.14-55.81c-0.01-2.76,2.7-8.3,7.12-8.3c1.94,1.79,4.35,3.28,5.74,5.42c6.64,10.21,13,20.6,20.63,32.8
		c1.48-4.1,2.82-6.05,2.73-7.92c-0.29-5.95-1.03-11.89-1.76-17.81c-0.7-5.64-0.68-12.05,6.07-12.37c2.93-0.14,8.61,5.85,8.87,9.36
		c1.37,18.88,1.72,37.85,1.65,56.78c-0.01,3.18,0.01,6.99-5.83,9.53c-3.33-2.26-7.78-3.8-9.79-6.91
		c-6.41-9.88-11.91-20.35-17.76-30.6C1512.95,479.53,1512.09,479.77,1511.23,480.01z"/>
	<path d="M1597.51,726.31c4.01,2.41,11.59,4.87,16.02,10.04c9.42,10.98,17.89,22.96,25.2,35.44c2.12,3.62,0.5,11.36-2.22,15.24
		c-1.87,2.67-8.92,3.38-13.1,2.45c-19.5-4.34-39.59-25.55-42.24-43.46C1579.65,735.64,1585.78,726.65,1597.51,726.31z"/>
	<path d="M1754.88,793.21c-2.65,0-5.33,0.22-7.96-0.04c-8.09-0.81-12.37-7.46-9.1-14.92c1.68-3.83,4.17-7.88,7.41-10.37
		c16.31-12.53,34.11-21.74,55.41-21.52c10.25,0.11,13.16,5.14,8.07,14.06C1796.85,781.24,1780.08,794.17,1754.88,793.21z"/>
	<path d="M1566.68,492.93c0.42-14.93,3.82-28.97,13.1-41.01c3.7-4.8,7.64-8.81,13.27-1.31c1.61,2.15,5.8,2.67,8.94,3.31
		c10.77,2.19,17.57,8.98,19.46,19.87c3.77,21.73-7.11,39.56-26.3,43.07C1576.68,520.25,1566.3,511.53,1566.68,492.93z
		 M1579.94,494.09c1.34,1.68,3.63,7.22,6.54,7.58c5.2,0.64,12.59-0.05,15.89-3.36c12.06-12.06,6.19-29.98-10.3-34.68
		c-4.99-1.42-7.64-0.17-8.39,4.98C1582.59,476.13,1576.65,484.84,1579.94,494.09z"/>
	<path d="M1631.74,836.76c-0.86,4.89-1.23,9.93-2.66,14.64c-3.68,12.06-16.41,19.08-28.34,16.08c-11.2-2.81-17.76-12.58-14.28-25.52
		c2.3-8.57,7.44-16.93,13.15-23.87c5.16-6.26,13.47-6.98,21.12-3.28C1629.84,819.24,1631.64,827.52,1631.74,836.76z"/>
	<path d="M1712.01,444.55c-0.79,20.12-2.95,37.2-3.92,57.31c-0.56,11.67-6.08,16.75-17.64,16.98c-13.79,0.27-22.29-5.93-23.83-17.39
		c-1.37-10.18,5.51-21.79,15.57-21.97c11.48-0.21,12.24-5.73,12.8-14.7c0.57-9.18,2.87-18.37,5.41-27.26
		c0.94-3.29,2.83-8.63,7.19-8.63c2.99,1.77,2.95,6.41,4.26,9.68c0.34,0.86,0.05,1.97,0.05,2.97
		C1711.43,441.51,1712.47,444.56,1712.01,444.55z M1684.14,506.42c9.49,0.74,12.76-2.73,11.63-8.63c-0.55-2.86,2.06-8.97-6.08-7.31
		c-6.84,1.39-10.27,2.88-10.94,9.44C1677.08,506.59,1680.97,508.28,1684.14,506.42z"/>
	<path d="M1991.78,709.73c-0.96,1.57-1.82,4.85-3.68,5.58c-2.33,0.91-6.75,0.81-8.06-0.73c-5.51-6.5-10.99-13.27-14.96-20.75
		c-3.85-7.26-6.1-15.43-8.58-23.35c-2.42-7.75-7.46-11.2-15.06-9c-9.14,2.64-17.94,6.45-26.98,9.47c-2.86,0.95-6.02,0.99-9.04,1.45
		c1.09-2.91,1.5-6.38,3.38-8.64c12.65-15.17,29.85-17.88,47.93-15.27c4.64,0.67,10.13,5.75,12.47,10.25
		c7.78,15,14.31,30.64,21.28,46.06C1991.02,706,1991.17,707.36,1991.78,709.73z"/>
	<path d="M1763.8,845.43c0.66-15.39,10.67-26.03,23.77-25.27c13.58,0.79,26.01,10.32,25.35,19.45
		c-1.01,14.16-15.65,27.61-29.66,27.26C1770.64,866.55,1763.24,858.4,1763.8,845.43z"/>
	<path d="M1766.9,477.1c-1.29-0.58-1.58-0.73-1.89-0.86c-3.77-1.51-10.35,3.46-11.28-4.23c-0.86-7.1,5.02-6.89,9.86-8.41
		c3.12-0.98,5.98-4.21,7.91-7.13c1.55-2.34,1.02-5.99,2.36-8.56c1.41-2.73,2.14-5.65,5.98-7.29c4.66,0,4.32,5.9,4.07,8.63
		c-1.29,13.83-0.12,13.38,13.7,12.96c3.66-0.11,7.48-0.86,10.93-0.05c2.52,0.59,6.82,0.61,6.82,5c0,4.12-4.19,5.46-6.63,5.8
		c-6.55,0.92-13.29,0.76-19.94,0.59c-5.68-0.14-8.6,2.04-9.22,7.86c-1.06,9.9-2.62,19.75-3.73,29.64
		c-0.54,4.84,0.88,10.81-7.08,10.28c-7.84-0.52-6.3-6.54-5.92-11.24c0.53-6.62,1.84-13.18,2.69-19.78
		C1766.11,485.8,1766.48,481.27,1766.9,477.1z"/>
	<path d="M1891.49,531.73c-13.92-0.05-17.74-3.87-17.29-17.9c0.84-26.13,5.88-51.44,15.4-75.82c0.84-2.16,1.4-4.99,3.05-6.14
		c2.4-1.68,5.66-2.12,8.56-3.09c2.92,0.09,1.47,5.47,0.86,7.87c-4.31,17.06-9.28,33.96-13.4,51.06c-1.86,7.71-2.21,15.79-3.39,23.67
		c-0.9,5.99,1.34,8.9,7.54,8.39c0.66-0.05,1.37-0.15,1.99,0.02c4.48,1.18,12.35-3.29,12.05,5.3c-0.08,2.35-8.01,4.49-12.4,6.58
		C1893.64,532.06,1892.49,531.73,1891.49,531.73z"/>
	<path d="M1838.46,518.33c-10.7-10.76-22.31-5.71-33.81-5.69c-5.06,0.01-12.98-6.27-14.38-11.19c-1.36-4.76,2.93-12.26,6.66-17.05
		c4.25-5.45,21.61-6.98,26.99-2.69c2.82,2.25,4.51,7.21,4.78,11.08c0.51,7.34,3.55,10.89,10.87,11.22c3.86,0.17,9.26,0.11,7.64,6.02
		C1846.42,512.91,1841.42,518.33,1838.46,518.33z M1807.05,489.78c-2.21,0-3.43,1.64-3.42,5.64c0.01,4.63,3.53,4.59,4.99,4.59
		c1.31-0.68,2.87-2.19,3.01-4.01C1811.94,492.04,1812.85,490.05,1807.05,489.78z"/>
	<path d="M1729.93,505.55c5.43,3.67,10.14,1.76,13.56,1.57c2.35-0.13,5.38-1.54,7.76-1.07c-0.68,2.79-0.55,6.23-2.18,8.25
		c-5.65,7.04-25.5,4.83-29.1-3.65c-4.63-10.89-6.92-22.03,1.18-33.13c4.34-5.94,9.19-7.37,15.45-5.46
		c7.99,2.44,12.19,8.69,11.96,16.56c-0.18,6.18-1.96,12.84-10.42,13.59c-1.51,0.13-6.96,0.07-8.43,0.64
		C1730.22,509.05,1729.54,500.82,1729.93,505.55z M1737.87,488.32c0-2.78-3.6-4.85-4.67-5.03c-1.17-0.2-6.17-0.01-6.17,3.4
		c0.68,1.24,0.77,3.5,4.58,3.33C1732.79,489.96,1735.32,489.09,1737.87,488.32z"/>
	<path d="M1980.99,475c-1.61,12.15-2.75,24.39-5.13,36.38c-0.62,3.14-3.38,7.47-7.81,8.25c-3.67-1.3-4.18-6.66-4.08-9.92
		c0.52-17.27,1.75-34.51,2.74-51.76c0.04-0.66-0.1-1.43,0.18-1.97c1.83-3.53,1.11-10.51,5.66-10.51c3.96,0,5.9,6.72,6.59,10.49
		c1.11,6.12,0.43,5.91,0.43,12.23C1980.24,471.28,1980.99,472.53,1980.99,475z"/>
	<path d="M1869.5,504.55c-0.25,2.97,0.14,5.57-0.82,7.5c-0.84,1.69-3.2,3.62-4.89,3.63c-1.66,0-4.56-2.09-4.8-3.6
		c-1.74-10.79-3.33-21.64-4-32.54c-0.14-2.21,1.53-5.68,5.86-7.01c2.9,0,4.17,4.51,4.7,7.09
		C1867.29,488.04,1868.3,496.62,1869.5,504.55z"/>
	<path d="M1962.78,548.74c-2.12-2.45-4.48-4.25-4.18-5.01c0.81-2.07,2.73-3.71,4.22-5.51c2.73-1.13,7.4,2.72,7.38,4.04
		C1970.16,544.07,1968.9,548.74,1962.78,548.74z"/>
	<path d="M1857.88,437.93c5.01,0.72,6.83,5.44,5.39,8.07c-0.86,2.31-4.01,4.23-6.6,5.14c-0.82,0.29-4.37-3.36-4.17-4.87
		C1852.82,443.88,1853.61,440.62,1857.88,437.93z"/>
	<path d="M601.66,828.95c-8-4.35-14.5-8.84-21.68-11.38c-3.59-1.27-8.83,0.13-12.65,1.83c-20.83,9.32-54.1,3.68-68.74-12.21
		c-17.58-19.1-22.51-66.45,1.5-86.56c24.95-20.91,47.42-44.83,70.48-67.93c6.51-6.52,11.78-14.45,16.74-22.29
		c14.27-22.56,31.33-28.94,56.06-18.6c9.33,3.9,17.89,10.22,25.82,16.64c3.07,2.48,7.83,9.01,5.01,12.63
		c-2.54,3.26-9.02,0.41-12.17-1.55c-11.78-7.35-24.48-9.89-38.07-10.07c-6.07-0.08-9.69,1.78-12.38,7.56
		c-8.8,18.9-21.06,35.16-36.44,49.54c-20.19,18.86-39.5,38.7-58.51,58.76c-10.66,11.25-7.49,38.35,4.87,47.46
		c2.69,1.98,6.95,3.12,10.25,2.73c12.84-1.53,25.68-3.35,38.33-6c11.84-2.48,22.69-4.8,31.19,7.58c3.55,5.16,10.59,1.84,13.47-6.82
		c4.31-12.94,7.85-26.13,11.61-39.25c0.92-3.19,1.06-6.64,2.24-9.71c0.85-2.21,1.87-5.92,4.34-5.94c2.74-0.02,4.49,4.14,4.84,6.49
		c0.84,5.52,1.35,11.35,0.51,16.82c-6.59,43.32-16.65,85.64-38.12,124.41c-8.81,15.91-12.17,32.74-11.12,50.95
		c1.49,25.74,28.65,56,54.86,58.39c-1.64-8.7-2.81-17.13-4.89-25.33c-2.24-8.86-0.03-14.18,8.94-14.97
		c14.23-1.25,28.58-1.78,42.85-1.38c3.5,0.1,8.48,4.38,9.79,7.87c1.03,2.74-1.69,8.01-4.26,10.74c-5.87,6.27-12.91,11.45-18.93,17.6
		c-1.74,1.78-1.6,5.39-2.32,8.16c2.5,0.5,5.04,1.56,7.5,1.4c5.63-0.36,11.46-0.55,16.79-2.16c27.34-8.29,54.77-16.37,81.68-25.92
		c9.48-3.36,16.96-12.12,26.36-15.94c25.13-10.23,43.76-28.63,62.71-46.83c2.64-2.54,5.5-4.84,8.21-7.3
		c5.28-4.79,10.77-4.88,16.21-0.49c5.49,4.43,6.04,10.06,3.13,16.16c-1.14,2.39-3.35,4.49-3.79,6.95c-0.46,2.6-0.4,6.78,1.18,7.98
		c5.88,4.47,5.45,9.33,2.59,14.95c-0.45,0.89-0.85,1.83-1.42,2.64c-27.99,39.35-62.2,70.98-108.81,87.02
		c-4.95,1.7-12.22,1.09-14.66,4.35c-2.33,3.12,1.09,10.01,0.47,15.05c-1.09,8.81-2.18,17.92-5.32,26.12
		c-7.9,20.65-23.7,22.48-41.43,13.21c-3.95-2.06-7.27-9.03-7.4-13.84c-0.23-8.08,2.55-16.22,3.58-24.39
		c0.33-2.61-0.88-5.42-1.38-8.13c-2.34,0.77-5.61,0.81-6.88,2.42c-27.21,34.43-64.4,34.85-102.89,30.16
		c-9.51-1.16-19.01-3.57-28.13-6.57c-64.03-21.07-65.38-92.5-28.11-126.76c6.49-5.97,7.7-12.31,9.14-20.53
		c2.88-16.48,7.79-32.82,13.77-48.49c4.59-12.03,12.27-22.85,18.25-34.38C598.85,837.22,600.38,832.17,601.66,828.95z
		 M849.97,962.09c-9.28,4.42-19.46,7.58-27.67,13.48c-24.74,17.79-52.66,27.84-81.47,36.14c-0.96,0.28-2.07,0.41-2.8,1
		c-1.92,1.58-3.67,3.37-5.49,5.08c2.21,0.96,4.36,2.19,6.67,2.79c1.53,0.4,3.29-0.08,4.95-0.21c27.52-2.18,52.47-11.77,74.23-28.35
		c11.46-8.73,21.02-19.96,31.45-30.06C849.83,961.97,849.97,962.09,849.97,962.09z M703.61,1023.25
		c-58.27,2.75-109.53-5.72-136.57-66.3c-1.47,1.56-2.7,2.32-3.15,3.41c-2.8,6.75-6.26,13.37-7.98,20.4
		c-7.49,30.7-0.72,49.29,26.75,62.96c22.97,11.43,47.66,15.08,72.86,11.93C676.76,1053,691.28,1039.05,703.61,1023.25z
		 M761.18,1057.54c0.38-6.1-2.95-9.88-4.15-13.9c-4.21,1.48-10.07,1.71-12.3,4.68c-4.8,6.37-8.65,13.86-10.97,21.48
		c-0.94,3.09,2.31,10.05,5.13,11.04c3.64,1.28,10.75-0.21,12.84-3.08C756.2,1071.62,760.75,1064.4,761.18,1057.54z"/>
	<path d="M1025.43,829.93c-3,37.46-17.96,69.43-46.4,96.09c25.26,12.98,42.36,32.74,57.82,54.17c3.22,4.47,8.55,10.11,2.42,14.59
		c-5.97,4.36-9.59-2.15-13.4-6.5c-12.7-14.5-25.22-29.24-38.92-42.76c-11.03-10.89-14.41-10.48-27.9-3.53
		c-18.89,9.73-37.12,4.95-45.65-15.24c-7.7-18.21-13.37-37.75-16.62-57.25c-6.34-38.03-10.96-76.38-15.06-114.73
		c-1.58-14.74-0.54-29.9,0.69-44.75c0.87-10.54,7.31-18.51,17.34-22.67c2.11-0.88,4.97,0.06,7.49,0.17c-1.07,2.08-1.6,4.91-3.3,6.11
		c-7.72,5.46-8.21,13.88-7.91,21.58c0.62,16.26,1.91,32.57,4.26,48.66c5.33,36.52,10.85,73.03,17.55,109.31
		c2.87,15.55,8.36,30.7,13.68,45.67c2.8,7.88,11.41,8.87,20.31,2.7c17.18-11.91,31.39-26.86,42.31-44.67
		c7.48-12.19,14.02-24.96,21.2-37.34c2.25-3.88,5.24-7.34,7.89-11C1023.95,829.01,1024.69,829.47,1025.43,829.93z"/>
	<path d="M916.04,630.52c0.22,11.29-5.45,15.54-14.16,11.95c-3.6-1.48-7.15-3.77-9.88-6.53c-17.61-17.82-39.8-25.38-63.86-26.69
		c-43.96-2.41-86.45,3.75-125.41,26.15c-3.17,1.82-6.49,3.62-9.97,4.54c-2.14,0.56-5.91,0.24-6.84-1.13
		c-1.33-1.96-1.88-5.92-0.74-7.78c2.19-3.55,5.67-6.37,8.85-9.22c27.75-24.91,61.53-34.18,97.52-39.47
		c32.68-4.8,63.66-2.15,93.39,12.5C900.9,602.68,913.05,613.72,916.04,630.52z"/>
	<path d="M511.71,489.48c-9.2,10.66-22.43,17.87-25.94,33.5c-0.65,2.91-5.07,4.98-7.76,7.43c-6.52,0-4.35-6.8-4-9.92
		c3.27-29.02,7.07-57.97,10.84-86.93c0.43-3.27,0.95-6.88,2.66-9.53c1.71-2.64,2.94-6.17,7.55-6.33c1.29,3.07,4.04,6.35,3.64,9.18
		c-2.43,17.08-5.66,34.04-8.45,51.07c-0.73,4.49-0.86,9.07-1.52,16.55c11.66-9.77,22.12-17.06,25.06-30
		c2.48-10.93,3.17-22.26,4.56-33.43c0.33-2.63-0.49-5.66,0.56-7.87c1.27-2.65,3.96-4.62,6.04-6.89c3.83-1.94,5.4,4.1,5.87,6.58
		c1.21,6.45,2.07,13.24,1.44,19.73c-1.96,20.08-4.63,40.1-7.13,60.12c-0.49,3.95-0.96,8.03-2.35,11.71
		c-0.75,2.01-1.36,8.12-5.19,4.93c-1.75-2.02-4.98-4.03-4.98-6.05c0-7.54,1.05-15.08,1.71-22.62
		C513.45,490.31,512.58,489.89,511.71,489.48z"/>
	<path d="M721.35,456.93c0,6.62-5.49,13.03-10.2,17.43c-6.13,5.72-13.85,10.3-21.65,13.53c-14.89,6.17-15.08,5.62-13.61,22.15
		c0.32,3.63,0.78,7.34,0.41,10.93c-0.48,4.56,1.48,11.6-5.69,11.85c-7.36,0.26-5.53-6.84-6.06-11.31
		c-2.09-17.47-3.87-34.97-5.86-52.45c-0.83-7.26-2.37-14.47-2.71-21.74c-0.29-6.19,1.38-10.26,8.88-5.14
		c1.87,1.27,6.68-0.02,9.12-1.66c7.61-5.1,15.06-9.61,24.84-8.23C711.79,434.14,719.73,442.92,721.35,456.93z M679.01,479.76
		c7.7-4.36,15.7-8.28,22.99-13.25c5.07-3.45,9.18-9.01,5.19-15.29c-3.75-5.91-10.47-9.91-17.1-6c-7.13,4.2-13.92,9.92-18.95,16.45
		C666.52,467.66,671.97,478.45,679.01,479.76z"/>
	<path d="M300.06,503.04c-0.33,16.61-7.17,24.67-23.12,26.25c-8.7,0.86-8.17,4.19-4.62,10.17c3.05,5.13,6.14,10.43,7.84,16.06
		c0.82,2.71-1.51,6.38-2.41,9.61c-3.3,4.09-7.31-2.07-8.66-4.43c-10.1-17.62-19.72-35.53-29.24-53.47
		c-2.94-5.54,2.56-16.46,11.21-20.52c12.56-5.91,25.84-6.47,38.72-0.83C297.14,489.12,300.71,495.39,300.06,503.04z M288.65,506.2
		c-0.12-8.84-3.76-12.84-13.33-11.45c-6.82,0.99-19.39-5.56-18.67,8.74c0.34,6.76,5.52,18.19,9.86,18.87
		C278.28,524.19,288.77,514.52,288.65,506.2z"/>
	<path d="M828.41,746.32c-7.02-3.59-16.33-6.13-22.38-12.02c-7.13-6.94-12.69-16.25-16.65-25.5c-4.52-10.56,2.3-18.1,13.48-16.1
		c21.65,3.88,38.07,14.82,46.75,35.91c2.38,5.77,1.59,9.66-4.39,11.89C840.27,742.34,835.23,743.98,828.41,746.32z"/>
	<path d="M673.07,739.28c-8.6-0.92-17.49-1.4-19.67-11.01c-1.97-8.68,5.25-13.72,11.99-17.61c10.82-6.25,21.17-13.93,34.81-12.68
		c11.54,1.05,18.11,5.3,18.9,12.58c0.89,8.26-6.4,20.05-15.04,22.37C693.88,735.67,683.41,737.22,673.07,739.28z"/>
	<path d="M548.99,488.88c3.5,11.95,4.89,12.95,15.85,10.63c4.52-0.96,8.86-2.99,13.41-3.54c2.95-0.35,6.65-1.88,9.19,1.75
		c1.54,4.14-2.49,10.06-4.75,10.56c-9.6,2.15-19.69,3.92-29.42,3.24c-10.88-0.77-19.05-16.15-18.2-30.79
		c1-17.09,12.78-31,27.14-32.03c9.66-0.69,16.94,4.9,19.75,14.61c2.7,9.31-2.79,13.81-9.88,16.92
		C564.57,483.54,556.69,486.04,548.99,488.88z M555.48,477.53c5.75-1.33,13.69-7.53,13.12-12.11c-0.4-3.38-3.17-5.1-5.5-5.11
		c-6.71-0.04-10.35,1.84-13.7,10.78C548,477.1,546.58,479.16,555.48,477.53z"/>
	<path d="M607.11,438.21c1.05,13.24,0.3,19.84,3.12,32.7c2.28,10.38,7.23,20.71,13.38,29.36c1.87,2.64,11.96,0.61,17.75-1.1
		c4.22-1.24,7.83-6.44,11.69-0.37c3.73,5.86-0.56,9.05-5.04,11.93c-14.68,9.42-34.8,4.27-41.67-13.08
		c-5.53-13.98-8.35-29.37-10.08-44.4c-1.51-13.11,0.07-26.59,0.51-39.89c0.1-2.94,0.63-6.11,1.94-8.68c0.85-1.67,3.6-3.49,5.25-3.28
		c1.45,0.18,3.54,3.06,3.63,4.83c0.38,8.31,0.17,16.64,0.17,24.97C607.39,431.22,607.47,438.18,607.11,438.21z"/>
	<path d="M696.84,782.22c-2.7,6.64-4.59,13.78-8.32,19.77c-4.48,7.19-12.11,9.16-20.16,6.61c-8.13-2.57-12.43-8.56-12.43-17.2
		c0-11.03,4.68-20.47,13.38-26.41c4.06-2.77,11.66-2.93,16.6-1.22C693.42,766.36,696.08,773.64,696.84,782.22z"/>
	<path d="M931.21,641.9c3.8-10.89,10.28-15.63,17.59-19.45c2.32-1.21,5-1.78,7.57-2.42c21.9-5.41,28.13-2.2,36.96,18.56
		c3.9,9.17,8.51,18.07,11.89,27.42c1.11,3.08,2.05,8.95-1.09,10.85c-3.44,2.09-9.38-1.75-10.97-4.46
		c-5.67-9.65-10.53-19.88-14.65-30.3c-5.01-12.67-6.51-14.13-19.85-10.71c-5.74,1.47-11.18,4.11-16.75,6.25
		C939.02,638.76,936.15,639.93,931.21,641.9z"/>
	<path d="M827.5,807.93c-10.34-0.18-18.24-7.71-18.05-17.19c0.26-12.55,9.74-23.28,20.22-22.88c12.55,0.47,22.45,8.01,22.18,16.87
		C851.49,796.37,839.14,808.14,827.5,807.93z"/>
	<path d="M384.85,510.99c-0.85-2.65-9.55-2.98-14.37-4.28c-2.88-0.78-5.92-0.99-8.8-1.76c-9.79-2.63-15.23-10.08-12.58-17.01
		c2.97-7.79,13.48-10.98,23.64-6.4c0.51,7.95-13.26,4.62-9.28,8.65c0.64,0.65,1.46,1.1,2.32,1.4c7.44,2.54,14.78,4.49,21.51,7.72
		c6.41,3.07,12.11,7.97,10.49,16.33c-1.6,8.24-8.61,10.66-15.66,11.68c-5.19,0.75-10.66,0.46-15.86-0.31
		c-1.94-0.29-3.49-3.25-5.22-4.99c1.73-1.69,3.21-4.4,5.22-4.89c6.1,0.33,12.5,3.34,18.36-2.91
		C384.74,512.45,384.72,512.75,384.85,510.99z"/>
	<path d="M344.88,524.96c1.57,5.45-5.12,7.3-7.02,7.33c-2.52,0.03-6.36-2.23-7.39-4.52c-4.48-10-8.01-20.42-12.14-30.58
		c-3-7.39-6.66-14.53-9.4-22.01c-0.72-1.97,0.88-4.8,1.41-7.23c3.2-4.41,6.09,0.37,6.82,1.77
		C326.61,487.92,340.55,516.24,344.88,524.96z"/>
	<path d="M822.79,402.98c-2.07,7.58-2.92,14.34-5.89,19.98c-1.43,2.71-7.56,5.38-10.32,4.43c-5.26-1.81-3.41-6.34-1.22-10.7
		c2.16-4.29,3.72-9.28,3.93-14.04c0.25-5.76-1.55-10.91-9.58-7.76c-6.2,2.43-6.12-1.75-5.01-5.68c2.31-8.17,14.64-11.3,20.08-4.37
		C818.79,389.95,822.79,397.74,822.79,402.98z"/>
	<path d="M773.05,406.63c-1.21,3.13-2.74,9.39-6.03,14.54c-1.53,2.39-6.47,2.61-9.86,3.81c-0.16-3.48-0.9-7.06-0.32-10.41
		c0.71-4.05,8.44-4.05,6.51-15.28c-0.62-3.58-4.03-8.52-11.41-5.69c-1.92-1.82-4.22-3.24-6.35-4.83c2.52-1.66,4.89-4.45,7.57-4.78
		C764.49,382.61,773.05,391.34,773.05,406.63z"/>
	<path d="M769.28,453.37c0,7.44-4.75,6.95-7.58,7.42c-1.77,0.3-4.42-2.41-4.42-5.72c2.04-5.73,3.2-4.46,6.22-5.56
		C764.9,449.01,769.05,449.45,769.28,453.37z"/>
	<path d="M811.97,438.21c5.15,0,5.54,6.64,5.11,8.24c-0.69,2.56-3.22,5.61-5.62,6.36c-1.46,0.46-5.9,0.04-5.89-4.63
		C805.55,443.67,809.81,438.21,811.97,438.21z"/>
	<path d="M2358.24,910.64c-4.96-0.58-8.4-0.43-11.44-1.46c-4.94-1.68-12-2.85-13.96-6.49c-5.21-9.67-10-6.76-17.85-3.62
		c-26.38,10.56-53.6,11.06-79.66-0.51c-13.1-5.82-22.44-16.75-28.99-30.42c-8.06-16.82-10.56-34.05-10-52.31
		c0.56-18.29,7.22-33.5,20.4-46.17c32.89-31.62,66.01-63.02,98.19-95.35c9.74-9.78,16.87-22.2,24.91-33.62
		c20.16-28.64,47.1-36.4,78.64-20.6c12,6.01,22.49,15.25,33.08,23.74c2.99,2.39,5.21,7.26,5.48,11.16c0.4,5.79-2.76,9.73-9.54,6.93
		c-2.75-1.14-5.56-2.42-7.92-4.2c-15.79-11.88-34.13-14-53.03-14.5c-6.46-0.17-10.66,2.28-13.62,7.98
		c-3.84,7.38-8.02,14.6-12.33,21.73c-9.85,16.26-20.8,31.36-35.2,44.37c-24.95,22.55-48.48,46.68-72.58,70.18
		c-2.14,2.09-4.17,4.32-6.12,6.59c-18.33,21.41-19.47,38.44-4.74,62.92c4.56,7.58,10.55,10.46,19.47,11.34
		c22.28,2.19,42.59-6.09,63.58-10.41c13.13-2.7,22.29,0.56,29.07,12.01c0.97,1.63,4.63,3.2,6.27,2.62
		c5.5-1.95,12.79-0.74,14.89-9.24c4.69-19.06,10.11-37.94,15.21-56.9c1.47-5.46,2.51-11.07,4.36-16.39c2.14-6.14,6.23-5.99,9.06-0.9
		c2.16,3.88,3.85,8.88,3.45,13.17c-1.79,19.17-3.29,38.48-7.02,57.31c-4.2,21.19-9.28,42.42-16.52,62.72
		c-8.35,23.43-18.88,46.15-29.56,68.65c-9.12,19.23-13.7,38.46-13.57,60.21c0.17,27.81,12.78,48.15,31.82,64.95
		c10.82,9.54,25.27,14.96,38.08,22.23c1.07-0.77,2.13-1.54,3.2-2.31c-1.8-11.27-2.42-22.91-5.72-33.72
		c-4.03-13.22-1.15-20.54,12.51-21.72c17.9-1.53,35.89-2.04,53.84-2.78c8.39-0.35,15.44,2.66,18.12,11.13
		c2.67,8.44-3.18,13.12-8.91,18.29c-9.04,8.16-17.68,16.9-25.45,26.26c-4.44,5.35-2.17,9.24,5.46,8.49
		c23.55-2.31,46.64-6.05,68.63-15.74c9.29-4.09,19.88-5.33,29.94-7.61c21.96-4.96,41.12-15.31,59.59-28.07
		c13.55-9.36,29.1-15.78,43.52-23.92c6.88-3.89,13.86-8.02,19.67-13.3c14.29-12.98,27.69-26.94,41.96-39.94
		c4.25-3.87,9.9-7.3,15.43-8.46c13.58-2.86,23.17,9.18,18.28,22.88c-2.39,6.69-6.8,12.65-10.3,18.96
		c11.76,4.47,14.26,12.62,8.86,23.83c-12.2,25.35-32.06,43.82-53.27,61.21c-14.86,12.18-29.26,24.99-44.84,36.18
		c-11,7.9-23.16,14.63-35.66,19.82c-9.61,3.99-20.47,5.35-30.92,6.77c-6.07,0.82-6.61,1.36-5.89,8.21
		c2.75,26.11,3.68,52.41-20.37,71.15c-12.1,9.43-24.92,4.74-37.14,1.08c-10.89-3.27-15.94-12.47-15.04-23.35
		c0.89-10.77,4.18-21.32,5.76-32.06c0.47-3.22-0.12-8.14-2.22-9.88c-4.37-3.62-8.26-1.12-11.47,3.43
		c-17.64,24.94-43.23,38.42-72.27,41.36c-40.29,4.08-80.88,2.17-118.25-16.57c-34.61-17.36-55.22-43.83-56.08-84.8
		c-0.75-36.14,12.02-64.63,39.15-87.68c2.82-2.4,5.25-7.32,5.04-10.91c-1.81-30.92,9.2-58.17,23.12-84.68
		c7.89-15.04,15.97-29.97,23.76-45.06C2354.69,920.81,2356.01,916.34,2358.24,910.64z M2311.06,1089.06
		c-10.36,13.66-18.36,28.18-19.03,44.57c-0.55,13.31-0.13,28.15,5.21,39.86c7.35,16.11,21.99,27.18,38.96,34.18
		c24.91,10.28,50.56,15.14,77.69,15.23c32.53,0.11,56.19-15.44,76.7-38.2c2.17-2.41,3.26-5.79,5.71-10.32
		c-8.48,1.82-14.51,4.19-20.54,4.21c-28.07,0.11-55.76-3.51-82.75-11.32c-18.46-5.34-35.07-14.09-48.47-28.41
		C2330.81,1124.2,2318.23,1108.86,2311.06,1089.06z M2691.78,1097.69c-0.66-0.82-1.33-1.63-1.99-2.45
		c-18.21,10.79-36.42,21.6-54.65,32.37c-4.26,2.52-8.35,5.57-12.93,7.25c-25.55,9.4-51.3,18.28-76.8,27.82
		c-3.69,1.38-6.43,5.31-9.61,8.06c3.92,1.11,7.83,2.25,11.77,3.29c0.58,0.15,1.3-0.18,1.96-0.31c28.39-5.8,56.66-9.07,82.65-26.03
		c21.2-13.83,38.23-31.68,57.92-46.69C2690.98,1100.32,2691.23,1098.81,2691.78,1097.69z M2571.01,1222.4
		c-0.22-3.97-0.2-7.98-0.72-11.91c-0.75-5.76-3.94-7.02-9.17-4.67c-15.32,6.87-25.21,22.15-24.99,38.94
		c0.08,5.88,2.26,10.25,8.41,11.93c5.89,1.62,11.39,3.18,16.23-2.84C2568.23,1244.57,2571.49,1234.17,2571.01,1222.4z"/>
	<path d="M2869.4,1046.5c27.74,10.43,45.31,30.45,62.44,50.85c7.44,8.86,14.17,18.32,21.06,27.64c3.82,5.17,4.57,11.59-0.89,14.96
		c-2.72,1.68-9.11-0.74-12.79-3c-3.47-2.13-5.76-6.35-8.25-9.88c-14.5-20.52-31.65-38.58-50.89-54.66
		c-3.55-2.97-7.75-5.16-11.51-7.91c-7.69-5.63-13.88-4.52-22.24,0.77c-24.03,15.2-53.36,11.49-66.51-18.71
		c-14-32.14-21.57-65.89-24.22-101.36c-2.86-38.38-9.49-76.6-16.47-114.52c-4.54-24.67-5.14-49.21-1.59-73.49
		c1.61-11.02,10.04-21.14,15.92-31.36c1.31-2.27,4.77-4.28,7.44-4.56c4.24-0.44,11.14-2.81,12.97,1.14c1.53,3.32-4.59,5.82-6.1,9.09
		c-3.78,8.22-10.27,16.74-10.03,24.97c0.75,25.53,1.8,51.46,7,76.35c8.59,41.09,16.72,81.99,19.38,124.03
		c1.22,19.29,2.39,39.29,13.28,56.8c2.91,4.68,4.04,10.54,5.55,15.99c4.12,14.86,14.84,19.58,28.13,10.89
		c23.73-15.52,43.13-35.69,58.05-59.77c11.56-18.67,21.85-38.13,33.01-57.06c2.36-4,5.49-12.63,10.28-9.95
		C2927.48,965.19,2910.5,1010.75,2869.4,1046.5z"/>
	<path d="M2644.5,577.11c50.11-1.12,86.69,9.89,119.04,34.06c11.06,8.26,18.61,19.35,19.77,33.41c0.4,4.79-0.68,11.89-3.83,14.2
		c-3.72,2.73-11.28,3.34-15.6,1.39c-6.03-2.72-10.38-8.94-15.84-13.16c-6.43-4.97-12.95-10.01-20.05-13.89
		c-6.96-3.8-15.21-5.33-22-9.36c-17.96-10.66-37.66-9.25-57.24-10.16c-32.36-1.5-63.71,4.64-94.56,12.81
		c-15.88,4.2-30.81,12.11-46.05,18.63c-8.56,3.66-16.76,8.19-25.34,11.8c-4.34,1.82-9.87,5.14-13.14-1.29
		c-2.75-5.42-2.4-11.24,3.16-15.18c16.54-11.74,32.75-24.04,49.92-34.78c21.88-13.68,46.9-18.28,72.09-21.7
		C2614.58,581.21,2634.32,578.5,2644.5,577.11z"/>
	<path d="M2243.96,545.49c-28.37-0.31-42.41-15.51-39.7-43.78c1.92-20,9.77-37.88,21.68-53.95c5.45-7.35,11.53-10.7,21.32-6.06
		c8.91,4.22,19.15,5.5,28.48,8.95c21.13,7.82,28.76,21.02,25.94,43.48C2297.87,524.53,2273.95,545.82,2243.96,545.49z
		 M2278.66,485.55c1.85-8.23-3.12-12.96-12.72-14.31c-7.54-1.06-15.06-2.33-22.54-3.75c-5.04-0.95-8.67,0.43-9.9,5.58
		c-2.68,11.23-5.99,22.42-7.37,33.83c-1.21,9.97,2.93,14.25,13,14.94C2260.29,523.3,2278.04,512.66,2278.66,485.55z"/>
	<path d="M2326.7,453.15c0.58,12.19,1.39,24.38,1.74,36.58c0.23,7.96,0.49,16.01-0.48,23.88c-0.35,2.89-1.9,8.02-6.42,8.02
		c-4.78,0-7.17-4.5-7.61-7.25c-1.51-9.48-1.55-19.19-2.23-28.81c-1.03-14.61-2.61-29.2-3.04-43.83
		c-0.31-10.53,3.17-12.21,12.84-8.95c15.81,5.33,26.11,16.59,34.27,30.4c2.08,3.53,4.05,7.12,6.07,10.69
		c1.25-0.33,1.11-0.29,2.36-0.62c0-6.62-0.04-13.25,0.01-19.87c0.05-7.33,0.01-14.66,0.32-21.98c0.23-5.48,1.26-12.31,8.1-11
		c3.48,0.66,8.02,7.29,8.24,11.42c0.83,15.6,0.24,31.29-0.13,46.93c-0.2,8.65-0.11,17.48-1.93,25.85
		c-1.04,4.78-2.82,11.98-8.67,13.14c-4.22,1.1-9.99-5.38-12.35-9.56c-5.03-8.93-7.82-19.09-12.43-28.3
		c-4.74-9.47-11.8-18.29-17.14-27.46C2326.87,452.81,2328.07,452.75,2326.7,453.15z"/>
	<path d="M2524.49,440.97c-3.08,25.74-6.15,51.48-9.27,77.21c-0.2,1.64-0.27,3.66-1.24,4.77c-3.2,3.62-5.59,10.31-10.21,10.31
		c-5.83,0-5.69-7.74-6.75-12.05c-1.23-5.04-1.7-10.92-0.3-15.81c2.73-9.53-0.65-15.7-7.72-21.5c-13.09-10.74-25.8-21.95-38.74-32.88
		c-2.79-2.36-6.6-3.86-8.6-6.7c-2.35-3.33-4.76-7.09-4.76-11.61c3.35-4.38,9.41-5.04,12.05-3.64c14.56,7.69,28.47,16.59,42.57,25.14
		c2.98,1.81,5.77,3.92,8.65,5.89c1.08-3.32,2.74-6.58,3.12-9.98c0.86-7.59,0.71-15.3,1.69-22.86c0.78-6.01,2.56-12.85,10.31-12.31
		c7.23,0.5,7.75,7.22,8.11,12.95c0.27,4.31,0.07,6.05,0.07,10.37C2523.82,438.29,2524.15,440.93,2524.49,440.97z"/>
	<path d="M2490.81,827.43c-4.82-2.2-8-3.25-10.76-4.97c-21.44-13.32-37.08-31.94-48.71-54.1c-1.52-2.89-2.59-6.15-3.2-9.37
		c-2.61-13.75,8.88-24.01,21.71-18.67c6.15,2.56,12.21,7.01,16.46,12.14c11.83,14.3,22.75,29.36,33.92,44.21
		c4.87,6.48,7.83,13.91,2.72,21.14C2500.01,821.98,2494.68,824.48,2490.81,827.43z"/>
	<path d="M2631.64,835.12c-12.16,0-18.63-9.26-13.96-16.29c16.3-24.53,30.53-51.4,60.14-63.2c3.34-1.33,9.84-1.41,11.23,0.53
		c2.37,3.33,3.96,9.85,2.22,13.04c-11.14,20.5-23.32,40.57-41.41,55.82C2643.79,830.16,2635.71,832.94,2631.64,835.12z"/>
	<path d="M2614.5,474.95c0-9.98-0.36-19.99,0.23-29.94c0.17-2.8,0.11-5.81,4.76-8.15c2.7-0.03,5.2,4.97,5.63,7.79
		c1.5,9.84,2.39,19.81,2.81,29.76c0.34,7.96,3.73,9.51,10.89,7.54c14.87-4.09,15.4-5.13,16.19-21.07
		c0.5-10.23,2.25-20.45,4.24-30.52c0.46-2.3,2.04-5.9,6.47-5.9c3.31,0,5.76,4.73,5.86,7.21c0.44,10.94,0.18,21.95-0.47,32.89
		c-0.8,13.56-2.22,27.08-3.41,40.62c-0.4,4.49,0.43,10.83-6.2,10.02c-2.29-0.28-4.2-6.63-5.57-10.47c-0.86-2.4-0.3-5.28-0.58-7.92
		c-0.13-1.29-0.72-3.62-1.11-3.62c-6.79-0.03-13.63-0.22-20.32,0.69c-1.93,0.26-4.25,3.61-4.91,5.96c-1.71,6.05-2.07,12.5-4,18.46
		c-1.1,3.41-4.03,8.57-6.46,8.75c-7.17,0.55-5.64-6.04-5.5-10.24c0.48-13.95,0.23-24.36,1.02-38.3
		C2613.8,478.51,2614.77,474.96,2614.5,474.95z"/>
	<path d="M2430,860.87c1.22-15.44,8.98-27.58,21.66-35.79c10.15-6.58,26.08-0.23,31.41,10.96c4.81,10.1,1.02,33.39-6.78,41.61
		c-8.96,9.45-19.84,12.52-31.83,7.56C2434.22,880.97,2429.72,872.3,2430,860.87z"/>
	<path d="M2831.4,509.43c0-13.95,0.08-27.91-0.03-41.86c-0.05-6.94,2.14-11.21,9.99-11.79c8.17-0.61,16.35-3.55,24.35-2.98
		c4.98,0.35,11.47,4.17,14.12,8.41c12.41,19.89-2.09,47.18-25.42,48.3c-7.74,0.37-10.67,3.15-10.5,10.7
		c0.24,10.96,0.32,21.96-0.44,32.88c-0.2,2.89-3.76,5.54-5.78,8.3c-2.14-2.7-6.02-5.33-6.14-8.11c-0.62-14.59-0.29-29.22-0.29-43.84
		C2831.31,509.43,2831.36,509.43,2831.4,509.43z M2843.73,485.09c-0.2,13.45,6.02,17.53,17.44,11.43c8.24-4.4,13.45-19.64,9.1-27.94
		c-0.98-1.87-3.86-3.52-6.08-3.86C2849.95,462.56,2843.98,468.65,2843.73,485.09z"/>
	<path d="M2859.1,627.4c12.38-0.55,20.37,6.21,25.28,16.36c7.64,15.79,14.39,32.02,21.48,48.08c0.53,1.21,1.36,2.67,1.09,3.78
		c-1.09,4.45,0.23,11.21-3.9,13.2c-3.9,1.88-9.95-2.05-11.73-5c-7.82-13-14.5-26.69-21.44-40.21c-1.04-2.02-1.09-4.52-1.82-6.72
		c-3.88-11.59-9.02-15.46-20.99-12.65c-9.83,2.3-19.1,6.97-28.6,10.64c-1.84,0.71-3.53,2.22-5.38,2.37
		c-2.03,0.17-4.15-0.81-6.23-1.29c0.59-1.79,0.79-3.86,1.84-5.33c7.61-10.68,17.41-18.26,30.65-20.5
		C2845.91,629.04,2852.52,628.3,2859.1,627.4z"/>
	<path d="M2664.16,885.33c-14.55,0.11-24.1-8.91-24.33-22.99c-0.26-16.62,12.59-32.11,26.47-31.9c16.16,0.25,32.2,11.46,32.25,22.55
		C2698.62,869.3,2681.73,885.19,2664.16,885.33z"/>
	<path d="M2389.85,442.74c0.52-4.37,1.1-13.03,2.82-21.45c0.62-3.03,2.29-6.39,6.15-8.22c5.43,0,5.91,5.79,6.36,9.03
		c1.98,14.49,2.77,29.13,4.52,43.66c0.75,6.23,2.45,12.4,4.33,18.41c2.08,6.65,5.82,9.45,12.49,4.23c2.8-2.19,6.64-4.81,9.71-4.48
		c4.34,0.46,9.31,2.65,12.16,5.78c1.16,1.28-1.75,7.59-4.17,10.47c-2.69,3.2-6.83,5.24-10.5,7.53c-14.27,8.86-24.78,6.26-33.28-8.39
		C2391.04,483.09,2390.5,465.04,2389.85,442.74z"/>
	<path d="M2694.9,501.37c8.43,1.76,16.87,3.46,25.28,5.29c5.36,1.16,14.67-1.75,14.57,5.94c-0.12,9.29-9.62,5.48-15.17,5.41
		c-6.89-0.09-14.07-0.86-20.56-3.01c-14.79-4.89-20.04-14.47-15.57-29.34c5.26-17.51,17.47-30.54,32.2-40.36
		c11.32-7.55,21.95-0.41,22.04,13.33c0.02,3.31-0.23,6.66-0.77,9.92c-4.26,25.69-10.63,30.55-36.68,28.3
		c-1.49-0.13-3.01,0.19-4.52,0.29C2695.45,498.55,2695.17,499.96,2694.9,501.37z M2727.34,455.34c-1.12-0.48-2.24-0.95-3.37-1.43
		c-10.59,5.54-17.71,14.94-24.76,24.33c-0.67,0.9-0.42,3.34,0.35,4.31c2.78,3.51,19.91,3.53,21.14-0.28
		C2723.55,473.5,2725.2,464.35,2727.34,455.34z"/>
	<path d="M2753.19,462.76c1.09-10.88,1.64-21.86,3.6-32.57c0.55-3,2.43-7.81,8.06-7.81c5.21,0,3.09,6.66,2.99,9.94
		c-0.45,14.87-2.21,29.72-2.13,44.57c0.09,16.12,6.32,21.94,22.13,23.49c3.63,0.35,7.42,0.41,10.78,1.6
		c2.01,0.71,4.62,3.36,4.61,5.14c0,1.88-2.49,4.96-4.4,5.44c-23.57,5.91-45.1-9.97-44.35-29.81c0.25-6.63-1.29-10.24-1.29-16.89
		C2752.75,465.85,2753.64,462.79,2753.19,462.76z"/>
	<path d="M2954.39,463.65c1.62-18.31,2.83-35.24,4.84-52.08c0.38-3.15,3.49-8.88,5.99-8.88c3.81,0,6.13,6.49,5.93,9.51
		c-1.23,18.19-3.14,36.36-5.59,54.43c-0.44,3.27-2.83,9.14-6.83,9.08c-2.98,0-2.95-6.96-4.28-10.5
		C2954.12,464.34,2954.39,463.23,2954.39,463.65z"/>
	<path d="M2907.7,456.51c2.32-12.3,4.52-24.63,7.03-36.89c0.51-2.51,1.55-5.6,3.42-6.98c2.08-1.53,5.5-2.12,8.08-1.66
		c1.1,0.19,2.79,4.6,2.11,6.19c-8.48,19.76-7.2,40.67-7.78,61.38c-0.06,1.97,0.03,4.31-0.97,5.8c-1.08,1.61-3.39,3.36-5.08,3.28
		c-1.42-0.06-3.76-2.57-3.91-4.16c-0.81-8.89-2.44-13.58-2.89-22.5C2907.24,460.9,2908.15,456.57,2907.7,456.51z"/>
	<path d="M2955.74,507.06c-5.85,6.68-8.24,4.15-9.24,3.89c-1.1-0.28-2.6-2.29-2.44-3.32c0.16-1.08,2.01-2.51,3.26-2.66
		C2948.76,504.79,2952.39,503.29,2955.74,507.06z"/>
	<path d="M2906.88,513.74c4.47,0.08,6.26,3.22,6.02,3.97c-0.49,1.52-2.32,3.97-6.25,3.97c-1.22-1.16-3.41-2.33-3.39-3.47
		C2903.27,516.9,2905.25,515.61,2906.88,513.74z"/>
</g>
</svg>
